<?xml version="1.0" encoding="UTF-8"?>
<svg version="1.1" xmlns="http://www.w3.org/2000/svg" width="256" height="256">
<path d="M0 0 C8.63172269 -0.20883455 17.26257209 -0.36859087 25.89627266 -0.46630955 C29.90571636 -0.51321936 33.91342821 -0.57679843 37.921875 -0.67895508 C41.79293593 -0.77698922 45.66233541 -0.83060435 49.53454208 -0.85389519 C51.00912516 -0.87048376 52.48362041 -0.9028826 53.95749283 -0.95157051 C65.46497316 -1.31647415 65.46497316 -1.31647415 69.13882446 1.83430481 C70.71621916 4.15667481 71.87507433 6.43173895 73 9 C73.67691895 10.11093018 74.35383789 11.22186035 75.05126953 12.36645508 C75.65567871 13.40697021 76.26008789 14.44748535 76.8828125 15.51953125 C77.21875427 16.09566162 77.55469604 16.67179199 77.90081787 17.26538086 C78.61161706 18.48480619 79.32123886 19.70491852 80.02972412 20.9256897 C81.91465713 24.17282687 83.80930827 27.4142887 85.703125 30.65625 C86.2648793 31.61855278 86.2648793 31.61855278 86.83798218 32.60029602 C89.81365643 37.6932659 92.82907678 42.76120326 95.875 47.8125 C101.98755065 57.95281778 108.02655818 68.13636766 114.06396484 78.3215332 C117.85485314 84.71489266 121.65556658 91.10192094 125.484375 97.47265625 C128.59068983 102.64135487 131.67987804 107.81984521 134.75390625 113.0078125 C135.14970383 113.67566269 135.5455014 114.34351288 135.95329285 115.03160095 C137.56065852 117.74443002 139.16759649 120.45751035 140.77319336 123.17138672 C141.97410317 125.2007861 143.17642147 127.22934604 144.37890625 129.2578125 C144.72498428 129.84362091 145.07106232 130.42942932 145.42762756 131.0329895 C145.77836838 131.62425629 146.12910919 132.21552307 146.49047852 132.82470703 C146.86036896 133.47468155 147.2302594 134.12465607 147.61135864 134.79432678 C149.01394646 137.12096172 149.01394646 137.12096172 151.04953003 139.51707458 C159.12847853 150.28682469 157.93141435 161.48220256 157.5625 174.45703125 C157.52508167 176.81494349 157.49128581 179.17291573 157.4609375 181.53092957 C157.37193074 187.6984328 157.23414156 193.86389028 157.08575439 200.0302124 C156.91753939 207.44951157 156.81066943 214.86992347 156.69337463 222.29016876 C156.50892982 233.5283179 156.24719534 244.762268 156 256 C136.86 256 117.72 256 98 256 C98.17015625 245.39037109 98.17015625 245.39037109 98.34375 234.56640625 C98.37998519 230.03158017 98.41138247 225.49771144 98.42578125 220.96289062 C98.44898658 213.79549432 98.48814693 206.63117017 98.63427734 199.46508789 C100.10719134 162.55458169 100.10719134 162.55458169 82.97000122 131.27833557 C79.78561211 127.59554243 77.36978608 123.47798558 74.875 119.3125 C73.91751746 117.78558846 72.95700384 116.26056936 71.9921875 114.73828125 C71.50975586 113.97338379 71.02732422 113.20848633 70.53027344 112.42041016 C67.69764115 107.94007887 64.84803289 103.47055095 62 99 C57.16224197 91.40544588 52.34256917 83.79984898 47.5390625 76.18359375 C43.70797641 70.11263987 39.85678831 64.05465239 36 58 C31.16850543 50.41518648 26.35198383 42.82126724 21.55883789 35.2121582 C18.80427704 30.8430611 16.03331461 26.48506662 13.24609375 22.13671875 C12.61251953 21.14671875 11.97894531 20.15671875 11.32617188 19.13671875 C10.09688828 17.21715491 8.86523893 15.29910335 7.63085938 13.3828125 C6.79071289 12.06990234 6.79071289 12.06990234 5.93359375 10.73046875 C5.43915771 9.96114014 4.94472168 9.19181152 4.43530273 8.39916992 C2.8015561 5.66829253 1.41091508 2.85130786 0 0 Z " fill="#FFFFFF" transform="translate(1,0)"/>
<path d="M0 0 C3.91365211 0.17502971 7.82915483 0.25177479 11.74560547 0.33721924 C19.40824867 0.5186862 27.06167062 0.80808471 34.71826172 1.16729736 C33.78137469 2.9042529 32.84210284 4.63992221 31.90185547 6.37506104 C31.37906006 7.34175217 30.85626465 8.3084433 30.31762695 9.3044281 C27.9769157 13.49430928 25.37144634 17.48323862 22.71826172 21.47979736 C21.56757493 23.23177978 20.41786944 24.98440702 19.26904297 26.73760986 C18.38853271 28.08000732 18.38853271 28.08000732 17.49023438 29.44952393 C14.59204406 33.89464029 11.74830813 38.37396788 8.90576172 42.85479736 C1.88845944 53.90690148 -5.16654515 64.93457259 -12.22753906 75.95880127 C-15.00155357 80.29159169 -17.77252451 84.62632475 -20.54321289 88.96124268 C-22.54676291 92.09308636 -24.55476731 95.22204129 -26.56298828 98.35089111 C-28.940362 102.05819998 -31.29454231 105.77829594 -33.62548828 109.51495361 C-34.38478638 110.72054932 -34.38478638 110.72054932 -35.15942383 111.95050049 C-36.0887963 113.42686962 -37.01008613 114.90837049 -37.92163086 116.39581299 C-38.9624723 118.03922498 -40.11217083 119.61286311 -41.28173828 121.16729736 C-42.27173828 121.16729736 -43.26173828 121.16729736 -44.28173828 121.16729736 C-45.8045533 119.04550972 -47.09556876 116.99207271 -48.37939453 114.72979736 C-48.77048401 114.06204788 -49.16157349 113.3942984 -49.56451416 112.70631409 C-50.83497781 110.53259528 -52.08991857 108.35036517 -53.34423828 106.16729736 C-55.05369496 103.22090261 -56.76912556 100.27800655 -58.48486328 97.33526611 C-58.90242386 96.61654831 -59.31998444 95.89783051 -59.75019836 95.15733337 C-63.23285845 89.18606743 -66.88552537 83.32784411 -70.8659668 77.67315674 C-71.95751953 76.03057861 -71.95751953 76.03057861 -73.28173828 73.16729736 C-72.05845582 69.15798058 -69.9377236 65.6752739 -67.82470703 62.07354736 C-67.48543182 61.49381165 -67.14615662 60.91407593 -66.79660034 60.31677246 C-65.69130819 58.43133499 -64.58056188 56.5491851 -63.46923828 54.66729736 C-62.69831259 53.35643143 -61.92739797 52.04555897 -61.15649414 50.73468018 C-56.18906602 42.30640452 -51.13479896 33.93641379 -45.92114258 25.65753174 C-45.45361572 24.91309814 -44.98608887 24.16866455 -44.50439453 23.40167236 C-43.98167969 22.63137695 -43.45896484 21.86108154 -42.92041016 21.06744385 C-41.50948177 18.57036126 -40.71643145 16.5176827 -39.86181641 13.815979 C-33.30437126 -4.13748383 -16.07034253 -0.79467338 0 0 Z " fill="#FFFFFF" transform="translate(220.28173828125,-1.16729736328125)"/>
<path d="M0 0 C4.05075936 1.35025312 4.52235078 3.13301365 6.625 6.80859375 C6.96882721 7.40273575 7.31265442 7.99687775 7.66690063 8.60902405 C8.7864195 10.54710315 9.89342116 12.49200826 11 14.4375 C12.52498972 17.09455931 14.0551682 19.74861092 15.5859375 22.40234375 C15.96334076 23.05854706 16.34074402 23.71475037 16.72958374 24.39083862 C18.94534351 28.22888007 21.22524773 32.01205676 23.6015625 35.75390625 C24.37886719 36.97992554 24.37886719 36.97992554 25.171875 38.23071289 C26.11587679 39.70492267 27.07104114 41.17206509 28.0390625 42.63061523 C29.81591152 45.4211705 31.01630944 47.33706933 30.93359375 50.69921875 C29.96062531 53.09703638 28.8642946 55.15401586 27.4375 57.3125 C26.98246094 58.00988281 26.52742188 58.70726562 26.05859375 59.42578125 C25.70925781 59.94527344 25.35992187 60.46476562 25 61 C21.64845134 57.93493226 19.50052244 54.75803366 17.2421875 50.828125 C16.8969957 50.2327594 16.55180389 49.6373938 16.19615173 49.02398682 C15.0832456 47.10263841 13.97879553 45.17659446 12.875 43.25 C11.35920458 40.6176213 9.83927641 37.98766678 8.31640625 35.359375 C7.94454697 34.71693848 7.57268768 34.07450195 7.18955994 33.41259766 C5.07605312 29.78190897 2.8958426 26.21636149 0.58984375 22.703125 C-0.12824463 21.60822754 -0.12824463 21.60822754 -0.86083984 20.49121094 C-1.71930945 19.20271662 -2.59250575 17.92386291 -3.48291016 16.65722656 C-4.60546875 14.96875 -4.60546875 14.96875 -6 12 C-5.37109375 9.33203125 -5.37109375 9.33203125 -4 7 C-3.64679688 6.33355469 -3.29359375 5.66710937 -2.9296875 4.98046875 C-1.953125 3.3203125 -0.9765625 1.66015625 0 0 Z " fill="#FFFFFF" transform="translate(140,81)"/>
</svg>
