<?xml version="1.0" standalone="no"?>
<!DOCTYPE svg PUBLIC "-//W3C//DTD SVG 20010904//EN"
 "http://www.w3.org/TR/2001/REC-SVG-20010904/DTD/svg10.dtd">
<svg version="1.0" xmlns="http://www.w3.org/2000/svg"
 width="512.000000pt" height="512.000000pt" viewBox="0 0 512.000000 512.000000"
 preserveAspectRatio="xMidYMid meet">
<metadata>
Created by potrace 1.16, written by Peter Selinger 2001-2019
</metadata>
<g transform="translate(0.000000,512.000000) scale(0.100000,-0.100000)"
fill="#000000" stroke="none">
<path d="M986 4923 c497 -3 644 -6 652 -16 10 -11 173 -290 194 -332 6 -11 7
-16 2 -12 -5 4 -52 83 -105 175 l-97 167 -657 2 -656 3 19 -33 c11 -17 77
-132 147 -254 69 -123 129 -223 131 -223 6 0 9 -6 -145 264 -72 126 -130 230
-128 232 2 2 113 -189 248 -424 294 -515 321 -562 315 -562 -2 0 -48 77 -101
170 -54 94 -99 170 -102 170 -5 0 4 -17 140 -255 117 -205 178 -300 102 -160
-21 39 -33 66 -27 60 5 -5 236 -406 512 -890 276 -484 504 -883 507 -888 2 -4
2 -7 -1 -7 -3 0 -30 45 -61 100 -32 55 -59 100 -61 100 -6 0 20 -50 79 -149
l52 -86 5 -935 5 -935 3 928 c1 636 -1 935 -9 950 -10 21 -10 21 5 3 14 -18
16 -123 16 -948 l0 -928 590 0 590 0 0 928 c0 825 2 930 16 948 15 18 15 18 5
-3 -8 -15 -10 -314 -9 -950 l3 -928 5 935 5 935 52 86 c59 99 85 149 79 149
-2 0 -29 -45 -61 -100 -31 -55 -58 -100 -61 -100 -3 0 -3 3 -1 8 3 4 231 403
507 887 276 484 507 885 512 890 6 6 -6 -21 -27 -60 -76 -140 -15 -45 102 160
136 239 145 255 139 255 -2 0 -29 -45 -61 -100 -31 -55 -59 -100 -62 -100 -3
0 4 15 14 33 10 17 120 208 243 424 123 216 225 391 227 389 2 -2 -56 -106
-128 -232 -154 -270 -151 -264 -145 -264 2 0 62 100 131 223 70 122 136 237
147 254 l19 33 -656 -3 -657 -2 -97 -167 c-53 -92 -100 -171 -105 -175 -5 -4
-4 1 2 12 21 42 184 321 194 332 8 10 155 13 652 16 l641 2 -641 3 c-600 2
-642 1 -656 -15 -9 -10 -89 -144 -178 -298 -89 -154 -174 -299 -187 -322 -14
-24 -23 -43 -20 -43 3 0 44 68 92 150 48 83 89 150 92 150 3 0 -4 -15 -14 -32
-11 -18 -171 -295 -357 -615 -186 -321 -342 -583 -346 -583 -4 0 -160 262
-346 583 -186 320 -346 597 -357 615 -10 17 -17 32 -14 32 3 0 44 -67 92 -150
48 -82 89 -150 92 -150 3 0 -6 19 -20 43 -13 23 -98 168 -187 322 -89 154
-169 288 -178 298 -14 16 -56 17 -656 15 l-641 -3 641 -2z m569 -127 c8 4 32
-27 69 -89 49 -84 54 -99 49 -133 -3 -22 -10 -47 -14 -56 -5 -10 -5 -19 0 -22
5 -3 14 22 20 55 l10 61 -48 82 c-59 101 -73 126 -67 126 2 0 31 -47 65 -104
l61 -105 -11 -58 c-13 -71 -17 -77 -35 -62 -7 6 -12 15 -9 19 2 4 -11 22 -30
40 -32 31 -58 88 -68 150 l-4 25 -2 -26 c-2 -39 24 -105 60 -152 l31 -42 -36
40 c-52 58 -86 179 -70 247 5 20 9 27 11 16 3 -9 10 -15 18 -12z m1984 2 c-7
-13 -34 -60 -61 -105 -26 -45 -48 -92 -48 -105 0 -43 13 -98 21 -92 4 2 4 16
-1 30 -19 50 -11 84 46 180 30 52 61 94 68 94 28 0 26 -114 -3 -170 -7 -14
-34 -46 -59 -72 -26 -27 -42 -48 -38 -48 5 0 3 -7 -4 -15 -22 -26 -28 -17 -35
49 l-7 63 62 107 c34 58 64 106 66 106 3 0 -1 -10 -7 -22z m246 -74 c-18 -103
-74 -227 -130 -289 l-36 -40 36 49 c39 53 78 126 89 166 4 14 -11 -13 -34 -58
-30 -60 -64 -108 -118 -165 -43 -45 -69 -76 -59 -68 24 19 21 8 -5 -15 -12
-10 -18 -13 -14 -6 4 6 3 12 -2 12 -5 0 -15 14 -22 30 -7 17 -15 29 -17 26 -2
-2 3 -18 12 -36 9 -17 15 -35 13 -40 -2 -5 -15 20 -30 55 -24 58 -25 65 -10
77 12 10 14 10 8 1 -11 -19 9 -16 25 4 12 15 12 16 -1 8 -13 -8 -13 -7 -1 8
15 18 26 23 16 7 -3 -5 -2 -10 3 -10 6 0 36 28 68 62 74 81 106 150 108 234
l1 64 53 0 c33 0 52 4 52 12 0 6 2 9 5 6 3 -2 -2 -45 -10 -94z m435 75 c12 -8
9 -9 -10 -4 -46 11 0 -11 145 -70 77 -31 144 -61 150 -66 5 -5 -19 -9 -60 -10
-39 -1 -94 -4 -124 -7 -51 -7 -54 -9 -57 -38 -4 -39 -22 -87 -23 -61 -1 9 -6
17 -11 17 -6 0 -87 32 -181 70 -167 69 -208 83 -159 55 28 -16 19 -21 -10 -5
-10 5 -17 18 -15 27 2 10 4 35 4 55 l1 38 163 3 c89 1 164 3 167 5 3 1 12 -3
20 -9z m-2968 -55 l3 -57 -44 -19 c-24 -10 -46 -17 -48 -14 -2 2 16 12 42 21
25 10 44 20 41 22 -2 2 -82 -28 -177 -67 -95 -40 -179 -74 -186 -77 -8 -3 -13
3 -13 18 0 23 -26 59 -43 59 -5 0 0 -8 11 -17 11 -10 23 -36 26 -58 4 -28 3
-34 -4 -20 -5 11 -9 30 -9 43 -1 31 -34 42 -139 44 l-87 2 95 6 95 6 -103 2
c-76 1 -101 -1 -96 -10 4 -7 3 -8 -4 -4 -7 4 -17 17 -22 29 -10 20 -10 21 3 4
12 -15 16 -15 20 -3 3 8 1 17 -6 20 -7 3 -3 4 8 1 12 -3 82 20 160 51 136 54
177 74 125 60 -16 -5 -20 -4 -12 2 7 5 91 10 187 11 l173 2 4 -57z m196 -13
c3 -97 31 -165 98 -239 50 -56 87 -82 68 -49 -4 6 -3 8 1 4 15 -13 14 -37 -1
-74 -9 -19 -13 -37 -11 -40 3 -2 13 19 23 46 10 28 20 49 22 46 5 -5 -48 -145
-55 -145 -2 0 -1 10 2 21 5 14 3 19 -3 15 -6 -3 -13 -2 -17 4 -3 5 -11 10 -17
10 -6 0 -3 -10 8 -22 10 -13 -3 -3 -29 22 -44 42 -65 67 -32 40 26 -22 16 0
-19 41 -71 84 -136 250 -136 351 l0 38 48 0 48 0 2 -69z m-143 -146 l17 -54
-30 -38 c-17 -21 -61 -67 -99 -103 l-68 -65 60 65 c54 59 52 57 -23 -15 -45
-44 -82 -84 -82 -89 0 -5 12 1 28 14 15 14 -7 -10 -48 -53 -41 -42 -77 -77
-79 -77 -3 0 19 26 49 58 36 37 29 32 -21 -16 -72 -69 -77 -72 -82 -50 -4 12
-7 36 -7 52 0 16 -3 27 -6 23 -3 -3 -3 -33 1 -67 l7 -61 27 23 c22 19 21 17
-4 -10 l-30 -33 -22 163 c-26 196 -28 270 -2 108 14 -91 16 -99 11 -40 -12
148 -31 124 168 207 220 92 204 87 216 61 10 -23 10 -19 -2 28 -12 46 4 23 21
-31z m2730 -52 c88 -36 164 -69 169 -74 5 -4 -3 -67 -19 -149 -15 -77 -26
-143 -23 -145 2 -2 17 62 32 143 16 81 32 151 36 155 4 4 -9 -72 -28 -170 -19
-98 -37 -181 -41 -186 -4 -4 -27 16 -52 45 -24 28 -38 49 -31 44 27 -16 9 12
-44 69 l-56 60 47 -57 c62 -77 51 -74 -17 4 -29 34 -47 59 -40 54 27 -16 9 12
-44 69 l-56 60 47 -57 c62 -77 51 -74 -17 4 -29 34 -47 59 -40 54 23 -14 12
10 -15 35 -25 22 -26 22 -9 2 27 -32 15 -29 -15 4 -13 14 -18 23 -10 18 11 -6
13 -4 8 8 -3 9 1 33 9 53 11 27 19 34 32 29 9 -3 89 -36 177 -72z m-2686 -80
c-12 -15 -12 -16 3 -11 11 5 24 -5 42 -33 14 -21 56 -71 93 -111 55 -60 58
-64 14 -23 -29 28 -72 76 -97 108 -24 33 -44 56 -44 52 0 -15 47 -73 117 -146
l74 -76 -21 -53 c-11 -29 -19 -54 -17 -57 3 -2 16 27 30 64 14 37 26 62 26 56
1 -7 -24 -78 -55 -158 -44 -112 -59 -142 -68 -132 -31 38 -313 109 -437 111
l-57 1 88 95 c49 52 105 111 127 130 21 19 11 6 -22 -30 -54 -58 -51 -57 23
15 45 44 82 84 82 89 0 5 -12 -1 -27 -14 -16 -14 8 13 52 58 74 77 105 104 74
65z m2432 0 c10 -11 10 -14 2 -9 -27 16 -10 -12 44 -69 l56 -60 -47 58 c-63
76 -52 73 16 -5 29 -34 47 -59 41 -54 -7 4 -13 4 -13 1 0 -9 210 -255 218
-255 3 0 -3 10 -14 23 -72 80 -187 220 -178 214 24 -14 212 -244 201 -244 -7
0 -68 -10 -137 -22 -128 -22 -226 -50 -270 -77 -27 -17 -24 -16 75 21 58 22
322 72 331 63 2 -3 -58 -15 -133 -28 -76 -12 -167 -33 -203 -47 -36 -14 -74
-25 -85 -26 -11 0 -23 -4 -26 -9 -3 -4 -35 60 -72 144 -37 83 -65 153 -63 155
2 2 27 -50 56 -117 29 -66 55 -119 57 -117 2 2 -17 51 -43 108 -57 129 -57
133 -31 156 19 16 20 16 8 1 -7 -10 -9 -18 -4 -18 11 0 130 122 172 178 18 23
28 42 22 42 -6 0 -11 -4 -11 -8 0 -4 -14 -23 -30 -42 l-31 -35 33 48 c35 52
40 54 59 30z m-1974 -119 c63 -27 73 -52 49 -125 -10 -28 -15 -53 -13 -55 5
-5 37 93 37 113 0 8 -7 28 -15 46 -15 29 -15 30 0 12 27 -34 28 -63 4 -137
-13 -40 -25 -65 -27 -57 -1 8 -19 22 -40 30 -20 7 -41 16 -46 18 -5 2 -5 -2
-1 -9 5 -9 4 -11 -4 -6 -6 4 -9 11 -6 16 3 4 -6 15 -20 24 -35 23 -45 19 -15
-5 23 -20 23 -20 2 -8 -13 8 -23 19 -24 24 0 6 -4 15 -10 22 -7 9 -3 31 13 73
27 67 22 66 116 24z m1566 14 c25 -18 60 -115 45 -124 -7 -5 -8 -3 -3 6 4 7 4
11 -1 8 -126 -59 -153 -75 -149 -85 2 -7 0 -13 -5 -13 -9 0 -15 25 -25 100 -5
33 -2 50 10 65 16 20 16 20 6 -1 -7 -15 -7 -42 -1 -80 l9 -59 -2 65 -2 64 55
27 c35 17 49 28 40 32 -8 3 -10 6 -4 6 5 1 18 -5 27 -11z m-1398 -213 c25 -46
20 -45 -13 2 -20 28 44 -88 125 -227 l72 -125 -36 -37 c-21 -21 -40 -35 -43
-30 -4 4 -40 78 -80 165 -40 86 -74 156 -76 154 -4 -4 144 -327 155 -339 4 -5
26 12 50 36 l44 45 -83 143 c-45 79 -85 146 -87 151 -2 4 -2 7 0 7 3 0 44 -68
93 -151 l87 -151 -51 -51 c-28 -28 -53 -49 -56 -47 -2 3 -45 93 -95 201 l-90
197 22 61 c12 33 25 57 28 53 4 -4 19 -29 34 -57z m1215 -3 c0 -34 -20 -103
-71 -242 -40 -107 -75 -198 -78 -202 -4 -5 -29 14 -55 41 l-49 49 88 151 c48
83 89 151 92 151 2 0 2 -3 0 -7 -2 -5 -42 -72 -87 -151 l-83 -144 39 -36 39
-37 -34 37 -34 37 103 176 c56 97 99 179 96 182 -3 4 -6 2 -6 -3 0 -6 -7 -19
-16 -30 -8 -10 -3 4 12 33 16 28 32 49 36 47 4 -3 8 -26 8 -52z m266 39 c-4
-5 -2 -11 3 -13 4 -1 34 -61 65 -132 39 -89 53 -133 46 -141 -5 -6 -7 -14 -4
-17 3 -3 0 -9 -7 -14 -8 -4 -10 -3 -5 4 11 18 -10 14 -25 -5 -10 -11 -10 -14
-1 -9 19 12 14 1 -10 -20 -19 -15 -20 -16 -9 -1 7 9 9 17 4 17 -4 0 -44 -37
-88 -82 l-80 -83 75 70 75 70 -75 -78 c-71 -73 -89 -89 -75 -67 4 6 -27 9 -87
8 l-93 -2 85 -6 85 -6 -85 -4 c-47 -2 -101 -5 -121 -6 l-35 -1 76 208 c42 115
79 212 83 216 4 3 -2 -20 -13 -52 -11 -32 -18 -60 -16 -62 2 -2 11 18 20 44
16 47 19 50 102 91 47 23 82 47 79 52 -3 6 1 7 10 4 9 -4 15 -3 14 2 -2 14 0
24 7 24 3 0 3 -4 0 -9z m-1876 -121 c-22 -57 -38 -105 -36 -107 2 -2 22 42 44
99 31 80 43 102 57 100 12 -2 15 1 9 10 -4 8 -3 10 2 5 5 -5 9 -14 9 -19 0 -6
6 -13 14 -16 9 -3 11 0 6 8 -5 9 -4 11 4 6 6 -4 9 -11 6 -16 -8 -12 73 -53 87
-44 7 4 8 3 4 -4 -4 -7 2 -16 17 -21 14 -6 28 -16 31 -23 3 -7 3 -2 0 12 -4
14 -4 23 -1 20 9 -9 187 -403 184 -406 -2 -2 -27 48 -57 111 -29 64 -55 114
-57 112 -2 -2 17 -47 42 -100 25 -53 45 -99 45 -102 0 -3 -48 -5 -106 -5 -67
0 -103 -4 -99 -10 14 -22 -4 -6 -75 67 l-75 78 75 -70 75 -70 -80 83 c-44 45
-84 82 -88 82 -5 0 -4 -7 3 -15 20 -24 5 -18 -16 7 -12 13 -13 18 -4 13 13 -8
13 -7 1 8 -16 20 -36 23 -25 5 4 -8 3 -10 -2 -5 -5 5 -9 14 -9 19 0 6 -6 13
-14 16 -9 3 -11 0 -6 -8 5 -8 4 -11 -3 -6 -6 3 -9 21 -7 39 l3 32 -13 -30 c-8
-16 -14 -25 -15 -18 0 15 102 274 107 269 2 -2 -15 -50 -37 -106z m2464 -246
c-131 -229 -120 -213 -146 -206 -18 4 -19 6 -5 11 11 4 -2 14 -44 30 -61 23
-62 24 -95 98 -53 115 -53 117 -2 138 24 9 57 21 73 26 54 16 268 50 282 45 7
-3 13 -1 13 4 0 6 -7 10 -16 10 -25 0 -245 -38 -283 -50 -19 -5 -37 -8 -39 -6
-12 12 299 71 330 63 10 -3 18 0 18 6 0 6 3 8 6 5 3 -3 -38 -82 -92 -174z
m-2872 136 c55 -11 104 -22 107 -26 3 -4 -5 -4 -19 -1 -14 3 -45 8 -70 11 -25
3 -9 -2 35 -12 122 -28 187 -53 180 -72 -3 -8 -20 -52 -38 -97 l-32 -83 -66
-27 c-50 -20 -65 -31 -61 -43 11 -32 -10 1 -98 155 -50 88 -100 174 -111 192
l-20 32 46 -5 c25 -2 91 -13 147 -24z m333 -130 c0 -7 6 -15 14 -18 9 -3 11 0
6 9 -5 8 -4 11 1 6 5 -5 9 -14 9 -19 0 -6 6 -13 14 -16 8 -3 11 0 7 7 -12 19
0 12 20 -11 19 -22 19 -23 -1 -8 -15 11 -14 7 4 -13 25 -28 53 -39 31 -12 -26
31 -2 13 44 -34 l48 -49 -133 1 -134 1 125 6 c150 7 147 12 -7 10 -104 -1
-112 0 -108 17 3 10 -1 5 -9 -12 -27 -53 -17 -9 16 75 17 44 36 79 42 77 6 -2
11 -10 11 -17z m2100 0 c-3 -5 -1 -10 5 -10 9 0 60 -98 60 -116 0 -3 -46 -5
-102 -4 -144 2 -145 -3 -3 -10 l120 -6 -127 -1 c-71 -1 -128 0 -128 1 0 1 23
24 52 51 29 28 44 40 34 28 -11 -13 -15 -23 -9 -23 13 0 45 35 38 42 -3 3 5
13 17 24 18 15 20 16 9 2 -8 -11 -9 -18 -3 -18 10 0 25 17 28 33 3 15 4 17 10
17 3 0 2 -4 -1 -10z m-1375 -110 c7 -12 9 -105 8 -260 l-3 -240 -199 199 -199
199 119 -1 c113 -1 114 -1 24 -4 -52 -2 -98 -7 -102 -11 -4 -4 41 -6 101 -4
l108 3 59 62 59 62 -60 -55 -60 -55 60 63 c33 34 63 62 67 62 4 0 12 -9 18
-20z m745 -42 l60 -63 -60 55 -60 55 60 -62 60 -62 105 -1 c144 -2 148 3 10
10 l-115 6 124 1 124 1 -204 -204 -204 -204 -3 235 c-2 196 0 240 13 265 9 17
19 30 23 30 4 0 34 -28 67 -62z m-996 -282 l224 -224 -144 1 -144 1 133 5 132
6 -175 175 c-96 96 -175 170 -175 165 0 -5 73 -83 162 -172 l163 -163 -116 0
-117 0 -6 43 c-8 51 -46 136 -71 157 -11 9 -7 0 9 -24 30 -45 57 -126 55 -170
-1 -23 -4 -17 -10 19 -13 80 -39 136 -86 187 -25 25 -44 50 -43 55 1 4 -4 9
-11 12 -8 2 -9 -1 -4 -10 5 -8 4 -11 -1 -6 -5 5 -9 14 -9 20 0 18 -123 56
-179 57 -83 0 -99 -29 -75 -142 14 -65 49 -136 90 -183 28 -32 59 -50 44 -25
-10 16 1 11 16 -7 12 -15 12 -16 -1 -8 -13 8 -13 6 -2 -8 15 -18 97 -51 155
-61 l37 -7 0 -114 c0 -78 -4 -115 -11 -115 -8 0 -7 -6 2 -17 12 -14 15 4 19
128 l6 144 2 -152 c1 -84 1 -153 -1 -153 -1 0 -99 98 -217 217 -174 177 -181
185 -37 43 97 -96 177 -170 177 -165 0 6 -79 89 -175 185 l-175 175 0 168 0
168 174 -3 c139 -2 172 0 164 10 -35 42 23 -14 221 -212z m1386 214 c-4 -7 53
-10 164 -10 l171 0 0 -163 0 -163 -60 -59 c-65 -65 -83 -100 -22 -45 20 19
-30 -34 -113 -117 -82 -84 -151 -150 -154 -148 -2 3 -17 -7 -33 -22 l-28 -27
0 116 0 116 50 11 c69 15 123 39 115 51 -3 5 0 7 7 5 21 -8 91 57 122 115 15
28 26 53 24 56 -3 2 -13 -14 -23 -36 -10 -22 -23 -44 -30 -50 -6 -5 2 17 17
49 31 61 56 176 45 204 -7 20 -80 23 -136 7 -25 -7 -32 -7 -24 1 6 6 41 14 77
16 88 8 100 -3 92 -77 -3 -30 -8 -66 -11 -80 l-6 -25 11 23 c5 13 13 48 16 78
9 73 -9 94 -80 94 -58 -1 -181 -39 -181 -57 0 -6 -4 -15 -9 -20 -5 -5 -6 -2
-1 6 5 9 4 12 -4 10 -7 -3 -12 -8 -11 -12 1 -5 -18 -30 -43 -55 -46 -50 -72
-106 -87 -187 l-9 -50 4 52 c5 71 37 139 88 191 22 23 36 42 30 42 -17 0 -80
-80 -102 -131 -11 -25 -23 -64 -27 -87 l-7 -43 -121 1 c-166 1 -168 -3 -6 -10
l135 -6 -144 -1 -144 -1 224 224 c123 123 225 224 227 224 2 0 0 -4 -3 -10z
m-1055 -204 c0 -97 1 -176 3 -176 2 0 12 10 23 22 18 20 18 21 1 15 -17 -6
-18 2 -16 138 1 80 3 145 4 145 2 0 29 -45 60 -101 l58 -101 -71 -71 -72 -72
0 194 c0 107 3 192 6 188 3 -3 5 -84 4 -181z m500 -18 l0 -182 -69 68 -69 68
66 114 c37 63 68 114 69 114 2 0 3 -82 3 -182z m-1218 40 c21 5 21 6 2 13 -19
7 -19 8 1 8 11 0 29 -4 40 -9 l20 -9 -20 -1 c-12 0 -5 -6 20 -15 22 -8 46 -13
52 -10 7 2 12 -1 10 -7 -1 -6 4 -13 12 -16 9 -3 11 0 6 9 -4 8 8 -2 29 -20 36
-35 77 -122 75 -164 0 -12 -7 2 -15 31 -18 67 -36 102 -65 127 l-24 20 23 -26
c25 -29 62 -117 62 -149 0 -11 -6 -20 -12 -21 -7 0 -4 -4 7 -9 25 -11 -1 -11
-35 0 -21 7 -22 8 -5 9 13 1 6 7 -20 16 -47 17 -66 19 -45 4 13 -9 13 -10 0
-6 -8 2 -15 10 -15 17 0 7 -6 15 -14 18 -9 3 -11 0 -6 -8 5 -9 4 -11 -4 -6 -6
4 -9 11 -6 16 6 9 -13 25 -30 25 -15 0 -63 104 -68 150 -3 22 -3 33 -1 24 4
-12 12 -15 26 -11z m1934 13 c-19 -7 -19 -8 2 -13 14 -4 22 -1 26 11 2 9 2 -2
-1 -24 -5 -46 -53 -150 -68 -150 -17 0 -36 -16 -30 -25 3 -5 0 -12 -6 -16 -8
-5 -9 -3 -4 6 5 8 3 11 -6 8 -8 -3 -14 -11 -14 -18 0 -7 -7 -15 -15 -17 -13
-4 -13 -3 0 6 21 15 2 13 -45 -4 -26 -9 -33 -15 -20 -16 17 -1 16 -2 -5 -9
-34 -11 -60 -11 -35 0 11 5 14 9 8 9 -7 1 -13 10 -13 21 0 32 37 120 62 149
l23 26 -24 -20 c-29 -25 -47 -60 -65 -127 -8 -29 -15 -43 -15 -31 -2 42 39
129 75 164 21 18 33 28 29 20 -5 -9 -3 -12 6 -9 8 3 14 11 14 18 0 7 7 15 15
17 13 4 13 3 0 -6 -21 -15 -2 -13 45 4 25 9 32 15 20 15 l-20 1 20 9 c11 5 29
9 40 9 20 0 20 -1 1 -8z m-986 -273 c0 -11 8 -18 20 -18 12 0 20 7 20 16 0 9
14 41 31 71 l32 55 76 -76 c73 -73 75 -76 57 -93 -10 -10 -15 -12 -11 -4 4 7
4 12 -1 9 -95 -45 -116 -51 -186 -56 -56 -3 -91 0 -127 12 -57 19 -72 20 -51
5 13 -9 13 -10 0 -6 -8 2 -15 9 -15 16 0 12 -23 31 -38 31 -5 0 -5 -4 -2 -10
10 -16 -1 -11 -16 7 -12 14 -12 16 0 9 9 -6 12 -5 8 5 -3 8 25 44 66 86 l71
72 33 -57 c18 -31 33 -65 33 -74z m-329 -95 c0 -15 2 -15 9 2 8 18 9 19 9 1 2
-37 -58 -141 -110 -191 -28 -27 -48 -44 -44 -36 5 9 3 12 -6 9 -8 -3 -14 -10
-14 -16 0 -5 -4 -14 -9 -19 -5 -5 -6 -3 -2 5 10 16 6 15 -45 -8 -24 -11 -50
-20 -56 -20 -10 0 -13 36 -13 145 l0 145 140 0 c126 0 140 -2 141 -17z m979
-129 l0 -146 -32 7 c-18 4 -45 14 -60 21 -36 19 -46 18 -22 -2 18 -14 18 -15
-4 -4 -13 7 -21 14 -18 17 7 8 -13 33 -26 33 -6 0 -5 -7 2 -15 26 -32 2 -13
-40 31 -25 26 -39 44 -32 40 17 -10 15 2 -6 32 -19 28 -52 105 -52 122 0 6 57
10 145 10 l145 0 0 -146z m-870 96 c6 0 8 6 4 13 -4 7 -3 9 2 4 5 -5 9 -14 9
-20 0 -14 126 -67 140 -58 6 3 1 7 -10 9 -11 2 -24 8 -30 14 -10 9 -7 9 38 -6
18 -6 17 -7 -2 -35 -12 -16 -32 -53 -46 -83 -14 -29 -25 -46 -25 -38 0 8 14
39 30 69 17 30 28 56 27 58 -2 2 -18 -24 -36 -57 -20 -38 -43 -66 -62 -75 -16
-9 -27 -20 -24 -25 3 -5 0 -12 -6 -16 -8 -4 -9 -3 -5 4 4 7 3 12 -2 12 -14 0
-127 -122 -145 -157 -28 -53 -19 -52 12 2 16 28 51 70 77 95 l48 45 -51 -56
c-28 -30 -60 -74 -72 -97 -14 -27 -26 -39 -35 -36 -18 7 -99 -34 -91 -46 3 -5
0 -12 -6 -16 -8 -5 -9 -3 -4 6 6 10 4 12 -7 7 -12 -4 -20 7 -33 41 -27 73 -36
72 -12 0 12 -36 27 -63 32 -60 6 3 8 3 5 -1 -15 -16 -23 -6 -44 55 -13 36 -34
81 -47 99 -12 18 -18 29 -12 26 7 -4 14 -3 18 3 3 5 14 10 23 9 14 0 13 -2 -3
-9 -13 -6 -15 -9 -5 -9 25 -1 122 48 116 58 -4 5 -1 13 5 17 8 4 9 3 5 -4 -11
-18 10 -14 25 5 10 11 10 14 2 9 -20 -12 -15 -1 9 20 19 15 20 16 9 2 -7 -10
-9 -18 -4 -18 16 0 44 36 36 45 -5 4 -3 5 4 2 21 -13 123 148 123 193 0 8 -11
-10 -24 -41 -24 -60 -54 -107 -82 -130 -10 -8 -1 7 18 33 33 42 77 139 79 171
0 7 4 2 9 -10 5 -13 14 -23 20 -23z m510 2 c0 -33 58 -130 114 -190 33 -37 52
-60 41 -52 -20 15 -20 14 -1 -8 20 -23 43 -31 30 -10 -4 7 -3 8 5 4 6 -4 9
-12 5 -17 -5 -9 90 -59 115 -59 9 0 11 -7 8 -22 -6 -23 -6 -23 9 -3 14 19 12
21 -23 37 -46 20 -36 24 12 4 18 -8 37 -11 41 -8 4 4 -2 -7 -13 -23 -20 -29
-56 -125 -65 -169 -3 -19 -3 -19 -18 -1 -8 11 -10 16 -3 12 8 -5 16 6 23 34 6
23 16 52 21 66 5 13 5 22 0 19 -4 -3 -14 -27 -21 -53 -7 -27 -14 -49 -15 -51
-2 -2 -35 14 -75 35 -49 26 -77 47 -87 68 -18 33 -131 155 -145 155 -5 0 -6
-5 -2 -12 4 -7 3 -8 -5 -4 -6 4 -9 12 -6 17 4 5 -6 14 -20 21 -15 7 -37 32
-50 57 -13 26 -31 55 -40 66 -9 11 -5 0 9 -25 32 -58 49 -103 36 -95 -6 3 -10
12 -10 19 0 7 -15 38 -34 69 -19 32 -32 56 -28 54 12 -7 137 48 137 60 0 6 4
15 9 20 6 5 6 2 1 -6 -6 -10 -4 -13 7 -9 10 4 18 -5 27 -30 15 -43 65 -125 88
-144 9 -7 -2 13 -25 45 -22 31 -46 77 -53 102 -7 25 -17 45 -22 45 -4 0 -5 5
-1 11 7 13 24 -7 24 -29z m708 -104 c-45 -79 -88 -150 -96 -158 -8 -8 -12 -10
-8 -4 7 13 -82 25 -90 12 -2 -4 15 -9 38 -11 38 -4 37 -4 -10 -4 l-53 1 48 48
c26 26 49 45 52 43 6 -7 101 86 101 99 0 6 -21 -10 -47 -34 -27 -25 -5 -1 47
53 52 53 96 97 97 97 1 0 -35 -64 -79 -142z m-1875 -26 l138 -138 -53 -1 c-46
0 -48 0 -10 4 23 2 40 7 38 11 -2 4 -25 6 -49 4 -37 -3 -45 -7 -40 -20 12 -33
-6 -5 -77 118 -85 147 -92 160 -88 160 2 0 65 -62 141 -138z m965 -42 c23 -46
27 -68 27 -135 0 -72 -4 -86 -34 -142 -18 -34 -41 -69 -51 -78 -17 -15 -19
-14 -39 14 -34 48 -70 134 -77 183 -8 60 15 139 63 212 l38 57 23 -28 c12 -15
35 -53 50 -83z m-689 -297 c23 -70 28 -171 10 -222 l-12 -33 -36 64 c-21 34
-54 92 -73 128 l-37 65 37 49 36 49 23 -27 c29 -34 30 -24 2 17 l-21 32 25
-29 c14 -16 35 -58 46 -93z m1277 55 c-27 -54 -31 -74 -34 -165 -3 -57 0 -103
4 -103 5 0 9 46 9 103 0 89 3 108 25 152 14 28 29 50 33 50 5 0 24 -20 42 -46
l34 -45 -72 -127 c-81 -143 -84 -143 -86 -1 -1 85 16 158 49 212 31 50 29 38
-4 -30z m-276 -88 c11 -7 5 -8 -20 -4 -27 4 -23 1 19 -15 30 -12 59 -25 65
-31 14 -14 29 -12 20 3 -4 7 -3 9 2 4 5 -5 9 -14 9 -20 0 -5 6 -12 14 -15 9
-3 11 0 5 9 -7 12 -5 12 9 0 9 -7 17 -15 17 -16 0 -1 -8 -9 -17 -16 -14 -12
-16 -12 -9 0 6 9 4 12 -5 9 -8 -3 -14 -10 -14 -15 0 -6 -4 -15 -9 -20 -5 -5
-6 -2 -1 6 4 7 4 12 -1 9 -66 -31 -109 -48 -122 -49 -14 0 -13 -2 3 -9 17 -6
14 -9 -18 -15 -44 -9 -121 0 -145 16 -15 9 -14 10 3 4 11 -4 47 -8 80 -10 l60
-4 -60 9 c-33 5 -77 16 -98 25 -21 8 -42 13 -48 10 -5 -4 -8 -1 -7 6 2 6 -3
14 -11 17 -9 3 -11 0 -6 -9 5 -8 6 -12 2 -9 -3 3 -6 10 -7 15 -1 6 -6 15 -11
22 -7 7 -6 14 1 18 6 3 8 10 5 15 -3 5 0 12 6 16 8 4 9 3 5 -4 -10 -17 -1 -15
36 8 35 21 31 28 -5 9 -18 -9 -20 -9 -10 1 6 7 29 14 50 16 21 2 67 8 103 13
91 12 93 12 110 1z m-575 -19 c28 -10 59 -22 69 -26 15 -7 17 -5 11 6 -5 8 -5
11 1 6 5 -5 9 -14 9 -19 0 -6 6 -13 14 -16 8 -3 11 0 7 7 -11 17 -1 13 18 -7
15 -18 15 -20 -6 -38 -12 -10 -18 -13 -13 -5 5 9 3 12 -6 9 -8 -3 -14 -10 -14
-16 0 -5 -4 -14 -9 -19 -6 -5 -6 -2 -1 6 6 11 4 13 -11 6 -125 -54 -194 -56
-292 -9 -31 16 -61 30 -66 32 -5 3 -6 0 -2 -7 11 -17 1 -13 -18 7 -15 18 -15
20 6 38 12 10 18 13 13 5 -5 -9 -3 -12 6 -9 8 3 14 10 14 16 0 5 4 14 9 19 6
5 6 2 1 -6 -6 -11 -4 -13 11 -6 65 28 124 44 159 44 22 0 63 -8 90 -18z m260
-214 c28 -56 35 -81 35 -128 0 -68 -27 -149 -72 -210 l-30 -42 -19 24 c-34 43
-79 143 -85 190 -8 60 17 145 62 217 34 53 36 54 55 36 10 -9 35 -49 54 -87z
m-560 43 c-3 -5 17 -21 44 -35 35 -17 57 -37 70 -63 11 -20 34 -53 51 -72 18
-19 26 -26 19 -15 -13 18 -13 19 4 6 9 -8 15 -16 12 -19 -7 -7 25 -42 38 -42
5 0 3 8 -4 18 -13 15 -12 16 3 4 10 -8 16 -19 15 -24 -1 -6 4 -13 12 -16 9 -3
11 0 6 8 -5 9 -4 11 4 6 6 -4 9 -12 6 -17 -4 -5 5 -14 19 -21 22 -9 91 -114
99 -149 1 -6 -16 -17 -38 -24 -51 -18 -56 -18 -25 1 l25 15 -25 -7 c-41 -11
-81 -34 -75 -44 3 -5 0 -12 -6 -16 -8 -4 -9 -3 -5 4 4 7 2 12 -3 12 -6 0 -11
7 -11 15 0 31 -53 119 -103 172 -54 57 -159 123 -150 94 4 -13 3 -14 -5 -1 -6
8 -8 18 -6 22 3 5 -5 28 -18 51 l-24 42 20 51 c14 33 26 49 35 46 9 -3 11 0 6
8 -5 9 -4 11 4 6 6 -4 9 -11 6 -16z m1044 -52 c12 -50 12 -56 -9 -90 -12 -21
-19 -41 -17 -45 3 -5 -1 -19 -9 -33 -16 -29 -19 -19 -3 13 l10 22 -18 -21
c-10 -12 -32 -29 -50 -38 -17 -9 -35 -21 -39 -27 -4 -8 -3 -9 4 -5 18 11 14 0
-5 -15 -11 -10 -14 -10 -9 -1 4 6 3 12 -3 12 -17 0 -101 -103 -127 -157 l-25
-51 -64 30 c-44 20 -74 28 -95 25 l-30 -5 20 28 c11 16 31 52 45 82 14 29 25
46 25 38 0 -8 -14 -39 -30 -69 -17 -30 -28 -56 -26 -58 2 -2 18 25 37 61 24
47 42 69 67 80 18 9 31 20 27 25 -3 5 0 13 6 17 8 4 9 3 5 -4 -4 -7 -3 -12 2
-12 15 0 120 117 140 155 12 23 37 44 82 68 36 19 68 33 71 31 3 -2 11 -27 18
-56z m-1014 -270 c0 -6 6 -13 14 -16 8 -3 11 0 7 7 -13 20 0 12 30 -21 16 -17
23 -28 17 -24 -17 10 -17 10 17 -58 45 -89 43 -96 -35 -96 l-66 0 2 116 c1 63
4 112 8 109 3 -4 6 -12 6 -17z m930 -8 c-3 -5 -1 -10 4 -10 7 0 11 -35 11 -95
l0 -95 -69 0 c-66 0 -69 1 -65 23 2 12 -2 6 -10 -13 -10 -25 -15 -29 -15 -14
-1 25 44 118 66 136 9 7 5 -5 -10 -27 -15 -22 -27 -44 -27 -50 0 -5 10 6 21
25 12 19 35 50 52 68 17 17 27 32 23 32 -5 0 -3 7 4 15 14 17 24 20 15 5z
m-400 -191 c33 -6 76 -19 97 -30 42 -21 52 -24 43 -9 -11 18 1 11 21 -12 13
-15 14 -18 3 -10 -14 10 -18 9 -24 -5 -5 -10 -8 -21 -7 -24 0 -3 -44 -50 -98
-104 -98 -98 -99 -99 -120 -80 -11 10 -18 21 -15 23 7 7 -56 72 -69 72 -5 0 3
-15 19 -32 16 -18 -13 9 -65 59 -77 75 -92 95 -82 105 11 11 12 9 6 -7 -7 -18
-6 -18 9 -6 9 7 15 17 12 21 -3 5 0 12 6 16 8 4 9 3 5 -4 -9 -15 -6 -15 40 4
35 15 101 30 145 33 8 0 42 -4 74 -10z m-158 -298 c-1 -3 6 -17 16 -31 15 -22
22 -21 18 3 -1 5 3 6 8 2 6 -3 -5 -27 -25 -55 -78 -109 -92 -223 -39 -333 29
-62 80 -125 109 -137 16 -7 17 -9 4 -9 -23 -1 -93 81 -125 148 -28 59 -37 151
-20 216 6 27 6 28 -5 10 -8 -12 -13 -52 -13 -95 0 -61 6 -85 28 -132 33 -68
111 -158 137 -158 24 0 91 79 127 149 24 48 28 68 28 141 0 73 -4 92 -28 140
-16 30 -40 69 -54 85 -29 34 -22 19 20 -42 67 -100 76 -221 23 -326 -16 -31
-38 -65 -49 -74 -11 -11 -7 1 12 29 81 121 82 254 3 371 -15 23 -31 47 -34 53
-4 6 32 48 80 95 48 46 71 67 52 47 -41 -46 -29 -50 17 -6 l33 32 0 -294 c0
-265 -2 -295 -17 -314 -18 -21 -18 -21 4 -2 23 19 23 21 26 340 l2 321 3 -320
2 -321 -72 -69 c-41 -39 -51 -47 -23 -17 68 72 43 66 -30 -8 -33 -33 -55 -60
-50 -60 5 0 -11 -20 -35 -45 l-44 -45 -63 62 c-34 34 -60 64 -58 67 7 6 -56
71 -69 71 -5 0 1 -12 15 -27 13 -16 0 -6 -29 22 l-52 49 0 320 0 321 84 -84
c47 -47 84 -87 83 -90z m-229 -128 l-3 -288 -5 280 c-3 154 -7 276 -8 270 -1
-5 -2 -120 -2 -255 l1 -244 -24 22 c-36 34 -44 26 -12 -10 16 -18 -5 1 -48 42
l-77 74 0 106 0 106 48 44 47 45 -42 -45 -43 -46 0 -105 0 -105 48 -44 47 -45
-42 45 -43 46 0 105 0 105 60 59 c60 60 84 100 33 54 -16 -13 -8 -2 17 24 24
26 45 47 47 47 2 0 2 -129 1 -287z m822 1 c0 -97 -1 -101 -27 -125 l-28 -24
23 26 c20 23 22 36 22 125 0 94 -2 102 -25 124 -14 13 -25 19 -25 13 0 -5 9
-18 20 -28 17 -16 20 -31 20 -110 0 -91 0 -91 -35 -125 -19 -18 -32 -36 -30
-40 2 -4 -20 -31 -50 -60 l-55 -54 0 284 0 285 95 -95 95 -95 0 -101z m-446
-41 c24 -48 28 -65 24 -122 -4 -67 -34 -145 -69 -176 -15 -14 -19 -12 -47 33
-44 67 -59 137 -43 204 12 54 43 112 61 114 5 1 15 2 21 3 5 0 7 6 4 11 -4 6
-11 7 -17 4 -7 -5 -8 -2 -4 5 12 19 38 -10 70 -76z m-439 -272 c-3 -2 6 -16
19 -30 23 -24 26 -36 29 -131 l3 -105 2 111 c1 76 -2 114 -10 124 -11 12 -10
12 3 2 13 -10 17 -40 22 -155 4 -78 11 -159 16 -180 8 -32 6 -39 -9 -47 -27
-14 -39 -12 -15 3 19 11 19 16 8 77 l-12 65 5 -65 5 -66 -68 -28 c-37 -16 -74
-31 -81 -33 -10 -4 -12 50 -12 268 0 151 -1 279 -2 284 -1 6 -5 -125 -8 -290
l-5 -300 -3 310 -2 309 60 -59 c33 -32 57 -61 55 -64z m865 -172 c1 -266 0
-281 -17 -275 -138 51 -154 60 -148 80 3 12 9 89 12 171 3 86 10 156 17 165 9
13 9 13 -5 2 -13 -10 -17 -41 -22 -165 -3 -83 -11 -165 -16 -182 l-11 -30 5
35 c3 19 8 101 11 182 l7 146 61 59 c44 42 49 45 16 11 -59 -64 -38 -62 25 2
27 28 45 50 41 50 -5 0 -3 7 4 15 7 8 14 15 16 15 1 0 3 -127 4 -281z m-695
19 c29 -31 32 -36 10 -18 -16 14 -8 1 20 -28 27 -28 54 -52 59 -52 5 0 -1 11
-14 25 -42 45 -15 26 34 -24 30 -31 44 -51 37 -56 -6 -3 -11 -3 -10 2 3 18 -2
28 -9 17 -12 -18 -125 -65 -134 -56 -5 5 -11 53 -13 107 -3 54 -8 101 -11 104
-7 6 1 -157 11 -219 l5 -35 -10 30 c-11 30 -27 245 -19 245 3 0 23 -19 44 -42z
m457 -154 c-7 -36 -8 -19 -4 66 2 63 1 112 -3 107 -5 -4 -7 -35 -6 -70 1 -34
-2 -83 -7 -109 -6 -32 -6 -48 1 -48 6 0 8 -2 5 -5 -3 -3 -13 -2 -22 1 -12 5
-14 9 -6 14 6 4 -14 16 -46 29 -31 12 -59 20 -61 18 -2 -2 17 -12 42 -22 26
-9 44 -19 42 -21 -2 -2 -27 5 -55 17 l-51 21 32 35 c18 19 30 37 27 39 -3 2
22 31 55 64 l60 61 3 -75 c1 -41 -1 -96 -6 -122z m-185 -69 c18 -1 36 -5 40
-10 5 -4 -3 -5 -17 -1 -14 3 -1 -5 29 -19 58 -27 76 -31 65 -14 -4 8 0 8 15 0
11 -7 21 -16 21 -21 0 -22 -45 -121 -101 -222 -58 -104 -86 -143 -54 -75 15
30 14 31 -1 10 -13 -18 -26 -23 -59 -23 l-42 0 -64 119 c-35 66 -65 118 -67
116 -2 -2 26 -58 62 -126 37 -67 65 -123 63 -125 -5 -5 -136 242 -152 287 -16
45 -19 60 -7 42 5 -8 36 1 107 32 55 24 107 41 115 38 8 -3 30 -7 47 -8z m270
-120 c20 -9 43 -13 52 -10 9 2 23 0 31 -6 12 -8 9 -9 -10 -4 -14 3 -1 -6 28
-19 l52 -25 0 -95 0 -96 -165 0 c-91 0 -165 2 -165 4 0 2 22 43 49 92 27 49
57 108 66 132 10 23 19 42 21 42 3 0 21 -7 41 -15z m-552 -116 c33 -66 62
-124 63 -130 2 -5 -61 -9 -158 -9 l-161 0 3 92 3 92 85 38 c47 21 90 37 95 37
6 0 37 -54 70 -120z"/>
<path d="M2739 3421 l-57 -99 59 -58 59 -58 0 157 c0 86 -1 157 -2 157 -2 0
-28 -45 -59 -99z"/>
<path d="M2132 4062 c159 -278 424 -732 428 -732 3 0 93 152 200 337 255 441
262 453 256 453 -2 0 -105 -173 -227 -385 -123 -212 -226 -385 -229 -385 -3 0
-106 173 -229 385 -122 212 -225 385 -227 385 -3 0 10 -26 28 -58z"/>
</g>
</svg>
