<?xml version="1.0" encoding="UTF-8"?>
<svg version="1.1" xmlns="http://www.w3.org/2000/svg" width="1280" height="1280">
<path d="M0 0 C380.82 0 761.64 0 1154 0 C1153.5 427.5625 1153.5 427.5625 1153.21679688 562.72875977 C1153.2098782 602.5989329 1153.2098782 602.5989329 1153.22424316 642.46910095 C1153.23047037 661.44659714 1153.18362494 680.42324823 1153.11119562 699.40058145 C1153.03865248 718.74888704 1153.0258741 738.09654943 1153.07069948 757.44494313 C1153.09559937 768.95149651 1153.07717911 780.4559679 1152.99330295 791.96225379 C1152.94226607 799.56121609 1152.94927884 807.15869358 1153.00347605 814.75763045 C1153.03269071 819.08596937 1153.03677127 823.41024622 1152.96992016 827.73825824 C1151.96742707 847.55080065 1151.96742707 847.55080065 1160.60438254 864.41584077 C1163.3069057 866.75345718 1166.09960244 868.78877667 1169.1074968 870.71389508 C1192.12515355 886.35620505 1206.06293266 921.16060116 1212.75 947.0625 C1212.94899902 947.82892822 1213.14799805 948.59535645 1213.35302734 949.38500977 C1216.56848434 962.59874398 1217.43985014 975.83745389 1217.4375 989.375 C1217.43889984 990.1549231 1217.44029968 990.93484619 1217.44174194 991.73840332 C1217.42090212 1005.96240019 1215.68484009 1019.23117639 1212 1033 C1211.65878849 1034.40102567 1211.31763666 1035.80206588 1210.9765625 1037.203125 C1205.92076435 1055.67769569 1196.41133925 1073.67453244 1185 1089 C1184.34773438 1089.88042969 1183.69546875 1090.76085938 1183.0234375 1091.66796875 C1175.38545778 1101.55333757 1166.75958207 1111.17458965 1157 1119 C1156.10539062 1119.74378906 1155.21078125 1120.48757813 1154.2890625 1121.25390625 C1134.42553241 1137.23979508 1110.874501 1148.4946568 1086.0625 1154.1875 C1085.06319458 1154.4198938 1085.06319458 1154.4198938 1084.04370117 1154.65698242 C1070.74198859 1157.53747824 1057.52633335 1158.29560572 1043.97507286 1158.25447559 C1042.31222687 1158.25687136 1040.64938196 1158.26014032 1038.98653919 1158.26419219 C1034.44400483 1158.27275472 1029.90155385 1158.26900984 1025.35901835 1158.26313647 C1020.40671809 1158.2589466 1015.45443251 1158.26637917 1010.50213587 1158.27228898 C1001.83121553 1158.28103512 993.1603188 1158.28236873 984.48939514 1158.27878571 C971.59496759 1158.27347153 958.70056285 1158.27958122 945.80613778 1158.28786864 C922.10444384 1158.30268346 898.40275953 1158.30495926 874.70106187 1158.30254826 C871.34565125 1158.30220979 867.99024062 1158.30188769 864.63483 1158.30158257 C863.63504299 1158.30149101 863.63504299 1158.30149101 862.61505826 1158.30139759 C847.82655397 1158.30012426 833.03805112 1158.30272971 818.24954726 1158.30610864 C814.87009376 1158.30687939 811.49064025 1158.30762413 808.11118675 1158.30837366 C806.75480906 1158.30867535 805.39843137 1158.30897723 804.04205368 1158.3092793 C803.03353405 1158.30950382 803.03353405 1158.30950382 802.00464028 1158.30973287 C800.6446335 1158.31003641 799.28462673 1158.31034109 797.92461995 1158.31064692 C759.34680753 1158.31931717 720.76899637 1158.32396589 682.19118309 1158.31969929 C681.47720232 1158.31962123 680.76322154 1158.31954317 680.02760499 1158.31946275 C672.06646046 1158.31859 664.10531593 1158.31766073 656.1441714 1158.31671212 C655.0660676 1158.31658385 655.0660676 1158.31658385 653.96618393 1158.316453 C647.99509188 1158.31574232 647.99509188 1158.31574232 645.24634251 1158.31541077 C599.28254726 1158.30987608 553.31877209 1158.31741519 507.35498047 1158.33618164 C495.77414644 1158.34090412 484.1933124 1158.34558475 472.61247826 1158.3500185 C471.89933415 1158.35029182 471.18619004 1158.35056515 470.45143551 1158.35084675 C448.46010424 1158.35922242 426.46877464 1158.36389812 404.47744179 1158.36472607 C403.78666969 1158.36475243 403.0958976 1158.3647788 402.38419302 1158.36480596 C387.21768724 1158.36534683 372.05118159 1158.3649741 356.88467585 1158.36376625 C351.45740992 1158.36334065 346.03014399 1158.36297552 340.60287806 1158.36263681 C339.25279441 1158.36255151 337.90271075 1158.36246257 336.5526271 1158.36236999 C315.73730283 1158.36096816 294.92199154 1158.36734779 274.10667038 1158.37832069 C251.19525851 1158.39037752 228.28387351 1158.3919261 205.37246124 1158.37953053 C192.55728285 1158.37290725 179.7421687 1158.37452075 166.92699546 1158.38811904 C158.35724249 1158.39637741 149.78753753 1158.39364796 141.21778844 1158.38214377 C136.34142814 1158.37590114 131.46519301 1158.37425077 126.58884005 1158.38600711 C81.00899924 1158.48852041 81.00899924 1158.48852041 59.625 1152.25 C58.26942993 1151.86593994 58.26942993 1151.86593994 56.88647461 1151.47412109 C48.57457987 1149.03243302 40.74581176 1145.86180295 33 1142 C32.039729 1141.52409424 32.039729 1141.52409424 31.06005859 1141.03857422 C10.29817801 1130.62910773 -9.4063898 1116.25024842 -24 1098 C-24.76699219 1097.05898437 -25.53398438 1096.11796875 -26.32421875 1095.1484375 C-40.84126961 1077.03942293 -52.34170373 1055.55513963 -58 1033 C-58.22558594 1032.16210938 -58.45117188 1031.32421875 -58.68359375 1030.4609375 C-65.12569415 1006.01577814 -65.96638025 977.67497599 -60 953 C-59.70198486 951.70763428 -59.70198486 951.70763428 -59.39794922 950.38916016 C-56.31435703 937.25790802 -52.08823397 925.03650855 -46 913 C-45.65598145 912.31744141 -45.31196289 911.63488281 -44.95751953 910.93164062 C-36.34679198 894.15176129 -23.95625833 875.39505077 -8.50306708 864.18938378 C-4.52369765 861.17472958 -1.51823525 858.75309714 -0.07241975 853.86216193 C0.27868784 850.05899677 0.31805127 846.32061313 0.24609566 842.50848293 C0.25521019 841.03587383 0.26871014 839.56328655 0.28617578 838.09075281 C0.32148493 834.04443256 0.29463191 830.00055542 0.25759946 825.95433886 C0.2284151 821.56285296 0.25725869 817.17168932 0.27879333 812.7802124 C0.30854313 805.07583493 0.30106937 797.37218535 0.26946664 789.66782558 C0.2220653 778.0630772 0.23291527 766.45886379 0.25480057 754.8540649 C0.2899031 735.40696915 0.27968172 715.9601574 0.24191284 696.51307678 C0.19098823 670.21789312 0.20235661 643.92335848 0.22436523 617.62805176 C0.24566409 554.39786275 0.17998087 491.16766869 0.125 427.9375 C0.08375 286.718125 0.0425 145.49875 0 0 Z M73 73 C73 106.33 73 139.66 73 174 C405.64 174 738.28 174 1081 174 C1081 140.67 1081 107.34 1081 73 C748.36 73 415.72 73 73 73 Z M73 247 C73 437.08 73 627.16 73 823 C77.62 822.34 82.24 821.68 87 821 C90.67618764 820.81574133 94.28003781 820.68996523 97.95263672 820.68115234 C98.96536715 820.67099909 99.97809757 820.66084583 101.0215168 820.6503849 C104.24090422 820.62019248 107.46020544 820.60272236 110.6796875 820.5859375 C112.69084394 820.56896529 114.7019934 820.55114461 116.71313477 820.5324707 C124.10034332 820.46974089 131.48768315 820.42332203 138.875 820.375 C155.41625 820.25125 171.9575 820.1275 189 820 C189 762.58 189 705.16 189 646 C301.2 646 413.4 646 529 646 C529 703.42 529 760.84 529 820 C560.68 820 592.36 820 625 820 C625 762.58 625 705.16 625 646 C737.2 646 849.4 646 965 646 C965 703.42 965 760.84 965 820 C997.93767178 820.24933456 997.93767178 820.24933456 1030.87548828 820.47802734 C1037.28686523 820.5324707 1037.28686523 820.5324707 1040.30075073 820.56045532 C1042.37844255 820.57798903 1044.45616747 820.59185931 1046.53390503 820.60269165 C1049.70519787 820.61996959 1052.87618678 820.64935932 1056.04736328 820.68115234 C1056.95256273 820.68332449 1057.85776218 820.68549664 1058.79039192 820.6877346 C1066.46267657 820.78543317 1073.20712001 821.88673143 1081 823 C1081 632.92 1081 442.84 1081 247 C994.87 247 908.74 247 820 247 C820 274.06 820 301.12 820 329 C860.26 329 900.52 329 942 329 C942.33 332.63 942.66 336.26 943 340 C955.54 413.59 968.08 487.18 981 563 C714.36 563 447.72 563 173 563 C206 369 206 369 212 334 C212 332.35 212 330.7 212 329 C252.26 329 292.52 329 334 329 C334 301.94 334 274.88 334 247 C247.87 247 161.74 247 73 247 Z M408 247 C408 274.06 408 301.12 408 329 C519.54 329 631.08 329 746 329 C746 301.94 746 274.88 746 247 C634.46 247 522.92 247 408 247 Z M275 402 C273.53713408 407.00826752 272.37114021 411.96774406 271.48779297 417.10668945 C271.35095093 417.8847847 271.21410889 418.66287994 271.07312012 419.46455383 C270.62581822 422.01350507 270.18389619 424.56335533 269.7421875 427.11328125 C269.4314424 428.89215402 269.12041308 430.67097716 268.80911255 432.44975281 C268.15964698 436.16540196 267.51268191 439.88147456 266.86767578 443.59790039 C266.03972134 448.36803308 265.20694464 453.13730778 264.37249565 457.90630817 C263.73114416 461.57337831 263.09159372 465.24076059 262.45267105 468.90825462 C262.1460467 470.66784629 261.83902807 472.4273693 261.5316124 474.18682289 C261.10382014 476.63767986 260.67827769 479.08891641 260.25341797 481.5402832 C260.06176559 482.63509003 260.06176559 482.63509003 259.86624146 483.75201416 C259.22333821 487.35513489 259.22333821 487.35513489 259 491 C468.88 491 678.76 491 895 491 C889.93518987 460.55141656 889.93518987 460.55141656 884.75708008 430.12231445 C884.36662907 427.85341417 883.97805215 425.58419082 883.59106445 423.31469727 C883.01637024 419.9448032 882.43656406 416.57582663 881.85546875 413.20703125 C881.68258835 412.18768997 881.50970795 411.16834869 881.33158875 410.11811829 C881.17084366 409.19331161 881.01009857 408.26850494 880.84448242 407.31567383 C880.63513313 406.09621819 880.63513313 406.09621819 880.42155457 404.85212708 C880.17154834 402.99403321 880.17154834 402.99403321 879 402 C875.80763685 401.90080552 872.63686819 401.86827298 869.44406033 401.87695217 C867.912663 401.8752214 867.912663 401.8752214 866.35032836 401.87345567 C862.88339297 401.8707806 859.41650279 401.87531844 855.9495697 401.87974548 C853.45732712 401.87930996 850.96508457 401.87843541 848.47284228 401.87715632 C843.03057148 401.87537862 837.58831502 401.87673615 832.14604568 401.88079453 C824.0535053 401.88681255 815.96097183 401.88713192 807.86842962 401.88625254 C794.25759517 401.88493646 780.64676557 401.88828829 767.03593254 401.89426994 C753.55301833 401.90018024 740.07010613 401.90403453 726.58719063 401.90512276 C725.33126356 401.90522587 725.33126356 401.90522587 724.04996422 401.90533106 C719.79808605 401.90566938 715.54620788 401.90597077 711.29432971 401.90625793 C681.15219174 401.90836021 651.01005641 401.91510275 620.86791992 401.92456055 C591.57918309 401.93373999 562.29044697 401.94082604 533.00170898 401.94506836 C532.09943074 401.94519989 531.1971525 401.94533141 530.26753249 401.94546692 C521.20675856 401.94678541 512.14598462 401.94806123 503.08521068 401.94930578 C484.6261888 401.95184222 466.16716696 401.95466348 447.70814514 401.95765686 C446.43497811 401.9578628 446.43497811 401.9578628 445.13609054 401.95807289 C388.42405925 401.96727873 331.71202946 401.98314527 275 402 Z M262 719 C262 752.33 262 785.66 262 820 C326.02 820 390.04 820 456 820 C456 786.67 456 753.34 456 719 C391.98 719 327.96 719 262 719 Z M698 719 C698 752.33 698 785.66 698 820 C762.02 820 826.04 820 892 820 C892 786.67 892 753.34 892 719 C827.98 719 763.96 719 698 719 Z M31 928 C20.46384192 941.17686606 13.97172267 956.42693126 11 973 C10.81824219 973.92039062 10.63648437 974.84078125 10.44921875 975.7890625 C7.05369941 1000.0596442 13.16829348 1025.34465487 27.6796875 1045.0703125 C44.73646892 1066.60665267 66.88294379 1080.96569681 94.47581904 1084.35547756 C102.24815476 1085.23788675 109.97883565 1085.2772881 117.79180908 1085.25168228 C119.42918383 1085.25377397 121.06655764 1085.25674046 122.70392942 1085.26049101 C127.17570336 1085.26822722 131.6473901 1085.26364672 136.1191625 1085.25693511 C140.99466491 1085.2518381 145.87015449 1085.25839086 150.74565506 1085.26342177 C159.28156069 1085.27063062 167.817441 1085.27043495 176.35334778 1085.26532745 C189.0466866 1085.25775303 201.74000413 1085.26163489 214.43334281 1085.26774407 C237.10548586 1085.27826995 259.77761763 1085.27736499 282.44976175 1085.27158624 C302.29060572 1085.26655401 322.13144556 1085.26524225 341.97229004 1085.26763153 C343.9468605 1085.26786069 343.9468605 1085.26786069 345.96132126 1085.26809447 C351.30501422 1085.26871715 356.64870717 1085.26935276 361.99240012 1085.270014 C376.92936128 1085.27184783 391.86632244 1085.27298917 406.80328369 1085.27358627 C407.82349454 1085.27362721 407.82349454 1085.27362721 408.86431571 1085.27366897 C430.5299668 1085.27448728 452.19561645 1085.27223503 473.86126709 1085.26788712 C474.56376338 1085.26774662 475.26625966 1085.26760612 475.99004372 1085.26746136 C487.39745087 1085.26517159 498.80485799 1085.26273261 510.21226511 1085.26028102 C555.45271195 1085.25056867 600.69314696 1085.25101947 645.93359375 1085.26074219 C657.33530679 1085.26318466 668.73701984 1085.26560679 680.13873291 1085.26788712 C681.19186283 1085.26809846 681.19186283 1085.26809846 682.26626809 1085.26831407 C703.90975102 1085.27262774 725.55323296 1085.27445475 747.19671631 1085.27358627 C747.87635467 1085.2735591 748.55599304 1085.27353194 749.25622651 1085.27350394 C764.17671431 1085.27287893 779.09720202 1085.27161155 794.01768973 1085.26976527 C800.0210298 1085.26902508 806.02436988 1085.26832824 812.02770996 1085.26763153 C813.34104644 1085.26747338 814.65438293 1085.26731522 816.00751749 1085.26715227 C835.83529497 1085.26487787 855.66306787 1085.26753687 875.49084473 1085.27259064 C898.03717816 1085.27830868 920.58349855 1085.27688047 943.12983036 1085.26602915 C955.74629625 1085.26015719 968.36273391 1085.25977238 980.97919907 1085.2673215 C989.40883791 1085.27180891 997.83845414 1085.26901031 1006.26808964 1085.26031196 C1011.06932445 1085.25555918 1015.87050321 1085.25391783 1020.67173624 1085.26112393 C1025.04683287 1085.26762336 1029.42182413 1085.26478415 1033.79691321 1085.2547626 C1035.36269068 1085.25276238 1036.92847704 1085.25404291 1038.49424738 1085.25917448 C1069.10594542 1085.35231226 1094.86492082 1077.6649143 1117.3125 1056.0625 C1124.19630685 1048.93599483 1129.58730211 1040.85297514 1134 1032 C1134.495 1031.00742188 1134.99 1030.01484375 1135.5 1028.9921875 C1146.41549993 1005.46928516 1147.08761019 979.12644393 1138.3125 954.8125 C1129.57919608 932.03393962 1111.86401147 912.28259544 1089.71875 901.92578125 C1081.38179252 898.25066073 1072.98603691 895.61128938 1064 894 C1063.09380187 893.82715916 1062.18760375 893.65431832 1061.25394507 893.47623987 C1057.82163102 892.97389433 1054.57336062 892.87384385 1051.10484755 892.8723495 C1050.43112764 892.87069872 1049.75740773 892.86904794 1049.06327207 892.86734714 C1046.80299197 892.86302911 1044.54277724 892.86582128 1042.2824955 892.86857224 C1040.63972228 892.86692227 1038.99694946 892.86483585 1037.3541773 892.86235213 C1032.82081514 892.85677988 1028.28747185 892.85745892 1023.75410736 892.85912972 C1018.82920206 892.85985994 1013.90430211 892.85483995 1008.97939909 892.8505547 C999.20276921 892.84296823 989.4261448 892.84078131 979.64951228 892.84022565 C967.94245246 892.83931264 956.2353977 892.83264695 944.52834005 892.82587883 C916.90176772 892.81019108 889.27519559 892.80412941 861.64861964 892.7994718 C847.59188836 892.79708857 833.53515754 892.79338508 819.47842662 892.7894347 C774.38646087 892.77676958 729.29449514 892.76598612 684.20252764 892.76259424 C682.04724443 892.762432 679.89196122 892.76226644 677.73667801 892.76209986 C673.41423524 892.76176606 669.09179247 892.76143558 664.76934969 892.7611053 C659.70883734 892.7607184 654.64832499 892.76032879 649.58781264 892.75993423 C648.13945362 892.75982182 646.69109461 892.7597104 645.2427356 892.75959998 C598.73454867 892.75605117 552.22637721 892.74097568 505.71819618 892.71766224 C472.3002618 892.70091741 438.88233034 892.68544417 405.46439171 892.68092728 C404.43318837 892.68078705 404.43318837 892.68078705 403.38115263 892.68064399 C388.28830231 892.67862479 373.19545203 892.67746887 358.10260158 892.6771154 C352.70178149 892.67697923 347.30096141 892.67677024 341.90014132 892.67652215 C340.55656619 892.67646059 339.21299107 892.67640227 337.86941594 892.6763472 C315.81046298 892.67539947 293.75152825 892.6645396 271.69258068 892.64954269 C250.19624934 892.63518095 228.69993851 892.63193889 207.2036037 892.63998267 C194.43164878 892.6444405 181.65976002 892.64057214 168.88781379 892.62474416 C160.3541791 892.61499681 151.82059078 892.61617013 143.28695652 892.62618039 C138.42612509 892.63157414 133.56542074 892.6322769 128.70459981 892.61967167 C124.27528541 892.60828149 119.84620074 892.61091302 115.41689406 892.62433875 C113.83148046 892.62675778 112.24604886 892.62424218 110.66065515 892.61594227 C79.39326464 892.46312054 51.65056651 903.97477516 31 928 Z " fill="#FFFFFF" transform="translate(63,61)"/>
<path d="M0 0 C38.94 0 77.88 0 118 0 C118 24.42 118 48.84 118 74 C79.06 74 40.12 74 0 74 C0 49.58 0 25.16 0 0 Z " fill="#FFFFFF" transform="translate(981,1013)"/>
<path d="M0 0 C38.94 0 77.88 0 118 0 C118 24.42 118 48.84 118 74 C79.06 74 40.12 74 0 74 C0 49.58 0 25.16 0 0 Z " fill="#FFFFFF" transform="translate(714,1013)"/>
<path d="M0 0 C38.94 0 77.88 0 118 0 C118 24.42 118 48.84 118 74 C79.06 74 40.12 74 0 74 C0 49.58 0 25.16 0 0 Z " fill="#FFFFFF" transform="translate(448,1013)"/>
<path d="M0 0 C38.94 0 77.88 0 118 0 C118 24.42 118 48.84 118 74 C79.06 74 40.12 74 0 74 C0 49.58 0 25.16 0 0 Z " fill="#FFFFFF" transform="translate(181,1013)"/>
</svg>
