<!DOCTYPE svg PUBLIC "-//W3C//DTD SVG 1.1//EN" "http://www.w3.org/Graphics/SVG/1.1/DTD/svg11.dtd">
<!-- Uploaded to: SVG Repo, www.svgrepo.com, Transformed by: SVG Repo Mixer Tools -->
<svg fill="#ffffff" width="800px" height="800px" viewBox="0 0 64 64" xmlns="http://www.w3.org/2000/svg">
<g id="SVGRepo_bgCarrier" stroke-width="0"/>
<g id="SVGRepo_tracerCarrier" stroke-linecap="round" stroke-linejoin="round"/>
<g id="SVGRepo_iconCarrier"> <title/> <g data-name="Layer 13" id="Layer_13"> <path d="M57,11H42V8.06A5.07,5.07,0,0,0,36.94,3H27.06A5.07,5.07,0,0,0,22,8.06V11H7a4,4,0,0,0-4,4V30a5,5,0,0,0,2,4V55a6,6,0,0,0,6,6H53a6,6,0,0,0,6-6V34a5,5,0,0,0,2-4V15A4,4,0,0,0,57,11ZM24,8.06A3.06,3.06,0,0,1,27.06,5h9.88A3.06,3.06,0,0,1,40,8.06V11H24ZM57,35V55a4,4,0,0,1-4,4H11a4,4,0,0,1-4-4V35h4v5a3,3,0,0,0,6,0V35H29v2a3,3,0,0,0,6,0V35H47v5a3,3,0,0,0,6,0V35h4ZM13,40V30a1,1,0,0,1,2,0V40a1,1,0,0,1-2,0Zm18-3V33a1,1,0,0,1,2,0v4a1,1,0,0,1-2,0Zm18,3V30a1,1,0,0,1,2,0V40a1,1,0,0,1-2,0ZM59,30a3,3,0,0,1-3,3H53V30a3,3,0,0,0-6,0v3H35a3,3,0,0,0-6,0H17V30a3,3,0,0,0-6,0v3H8a3,3,0,0,1-3-3V15a2,2,0,0,1,2-2H57a2,2,0,0,1,2,2Z"/> </g> </g>
</svg>